<?xml version="1.0" encoding="utf-8"?>
<!-- Generator: Adobe Illustrator 27.3.1, SVG Export Plug-In . SVG Version: 6.00 Build 0)  -->
<svg version="1.1" id="Layer_1" xmlns="http://www.w3.org/2000/svg" xmlns:xlink="http://www.w3.org/1999/xlink" x="0px" y="0px"
	 viewBox="0 0 84 33.4" style="enable-background:new 0 0 84 33.4;" xml:space="preserve">
<style type="text/css">
	.st0{fill:#F5F5F5;}
	.st1{fill:#161616;}
	.st2{fill:#B5D335;}
	.st3{fill:#7E141B;}
	.st4{fill:#FFFFFF;}
	.st5{fill:#E6E7E8;}
	.st6{fill:none;}
	.st7{fill:none;stroke:#FFFFFF;stroke-width:0.5;}
	.st8{fill:#3B3B3B;}
	.st9{fill:none;stroke:#F1F2F2;stroke-width:3;stroke-miterlimit:10;}
	.st10{fill:#F2F2F2;}
	.st11{stroke:#000000;stroke-width:0.5;stroke-miterlimit:10;}
	.st12{fill:#102E25;}
	.st13{fill:#F9A652;}
	.st14{fill:#F2E3D8;}
	.st15{fill:#74C165;}
	.st16{fill:#D7E151;}
	.st17{fill:#09203B;}
	.st18{fill:#F8F8EF;}
	.st19{fill:#D9D6A3;}
	.st20{fill:#F8E0B9;}
	.st21{fill:#F4F1EA;}
	.st22{fill:#0E4B44;}
	.st23{fill:#304C3C;}
	.st24{fill:#01814E;}
	.st25{fill:#1C2618;}
	.st26{fill:#414042;}
	.st27{fill:#F5F4DC;}
	.st28{fill:#566B30;}
	.st29{fill:#8B461F;}
	.st30{fill:#DC793B;}
	.st31{fill:#E0E77E;}
	.st32{fill:#194A91;}
	.st33{fill:#111610;}
	.st34{fill:#CEE5B2;}
	.st35{fill:#153032;}
	.st36{fill:#FAF7F2;}
	.st37{fill:#0F0F0F;}
	.st38{fill:#8E8F70;}
	.st39{fill:#F2EE94;}
	.st40{fill:#767558;}
	.st41{fill:#516555;}
	.st42{fill:#B3CFA5;}
	.st43{fill:#EED459;}
	.st44{fill:#6A806F;}
	.st45{fill:#DBEDE1;}
	.st46{fill:#176533;}
	.st47{fill:#009789;}
	.st48{fill:#EDD56E;}
	.st49{fill:#40281C;}
	.st50{fill:#F0E8DF;}
	.st51{fill:#303C22;}
	.st52{fill:#3374BA;}
	.st53{fill:#1A4474;}
</style>
<g>
	<g>
		<path d="M83.2,0H44.4c-6.6,0-11,2.9-11,10.2c0,4.7,1.6,7.5,3.5,9.1c0.1,0.1,0.2,0.4,0.3,0.6c0,0.2,0,0.4-0.1,0.6l-4.4,11.7
			c0,0.1-0.1,0.3-0.1,0.4c0,0.5,0.2,0.7,0.7,0.7h49.9c0.5,0,0.8-0.3,0.8-0.8V0.7C84,0.2,83.7,0,83.2,0z M76.3,5
			c1.2,0.1,2.1,1.1,2.2,2.3c0.2,1.9-1.6,3.4-3.4,2.8c-0.7-0.3-1.3-0.9-1.6-1.6C72.9,6.6,74.5,4.8,76.3,5z M72.8,28.4
			c-0.3,0-0.4-0.2-0.4-0.4v-3.5c0-0.3,0.2-0.4,0.5-0.5c1.5-0.2,2.2-1.5,2.2-2.8c0-1.4-0.5-2.6-2.3-2.6c-0.7,0-1.3,0.3-1.7,0.9
			l-3.8,5.5c-1,1.5-2.5,3-5.4,3c-3.8,0-5.9-2.9-5.9-6.6c0-4.4,2.5-6.7,5.8-6.8c0,0,0.2,0,0.2,0c1.5-0.2,2.2-1.5,2.2-2.8
			c0-1.4-0.5-2.6-2.3-2.6c-0.7,0-1.3,0.3-1.7,0.9l-3.8,5.5c-1,1.5-2.5,3-5.4,3c-3.8,0-5.9-2.9-5.9-6.6c0-4.4,2.4-6.8,5.8-6.8
			c0.3,0,0.4,0.2,0.4,0.5V9c0,0.3-0.2,0.6-0.6,0.6c-0.7,0-2.1,0.6-2.1,2.5c0,1.8,1.1,2.5,2.1,2.5c1.2,0,1.5-0.5,2-1.2l3.7-5.4
			C58,6,59.3,5,61.9,5c4.1,0,5.9,2.6,5.9,6.8c0,4.1-2.1,7.1-5.8,7.1c0,0-0.2,0-0.3,0c-0.7,0-2.1,0.6-2.1,2.5c0,1.8,1.1,2.5,2.1,2.5
			c1.2,0,1.5-0.5,2-1.2l3.7-5.4c1.3-1.8,2.6-2.9,5.2-2.9c4.1,0,5.9,2.6,5.9,6.8C78.6,25.4,76.5,28.4,72.8,28.4z"/>
	</g>
	<path d="M23.6,27h3.6c2.2,0,3.4-1.2,3.4-3.5V9.9c0-2.2-1.1-3.5-3.2-3.5h-3.8c-0.4,0-0.7,0.3-0.7,0.7v19.2C23,26.7,23.2,27,23.6,27z
		"/>
	<path d="M22.2,32.5L14.9,0.8c0-0.2-0.3-0.8-1-0.8H8.3c-0.7,0-0.9,0.5-1,0.8L0,32.4c0,0.1,0,0.3,0,0.4c0,0.3,0.3,0.6,0.7,0.6h5.6
		c0.5,0,0.7-0.3,0.8-0.6l1-4c0.1-0.3,0.4-0.5,0.8-0.5h4.8c0.4,0,0.6,0.1,0.7,0.5l0.8,4c0,0.2,0.3,0.7,0.7,0.7h5.8
		c0.4,0,0.6-0.3,0.6-0.6C22.2,32.8,22.2,32.6,22.2,32.5z M12.5,20.4C12.5,20.4,12.5,20.4,12.5,20.4c-0.1,0-0.1,0-0.1,0h-0.1H9.9H9.8
		c0,0,0,0-0.1,0c0,0,0,0,0,0c-0.4-0.1-0.5-0.4-0.5-0.7c0-0.1,0-0.4,0.1-0.6l1.1-5.3c0.1-0.2,0.2-0.4,0.3-0.6
		c0.1-0.1,0.2-0.1,0.4-0.1c0.2,0,0.3,0,0.4,0.1c0.2,0.1,0.3,0.3,0.3,0.6l1.1,5.3c0,0.2,0.1,0.4,0.1,0.6C13,20,12.9,20.4,12.5,20.4z"
		/>
</g>
</svg>
