<?xml version="1.0" encoding="utf-8"?>
<!-- Generator: Adobe Illustrator 27.3.1, SVG Export Plug-In . SVG Version: 6.00 Build 0)  -->
<svg version="1.1" id="Layer_1" xmlns="http://www.w3.org/2000/svg" xmlns:xlink="http://www.w3.org/1999/xlink" x="0px" y="0px"
	 viewBox="0 0 61.7 61.5" style="enable-background:new 0 0 61.7 61.5;" xml:space="preserve">
<style type="text/css">
	.st0{fill:#F5F5F5;}
	.st1{fill:#161616;}
	.st2{fill:#B5D335;}
	.st3{fill:#7E141B;}
	.st4{fill:#FFFFFF;}
	.st5{fill:#E6E7E8;}
	.st6{fill:none;}
	.st7{fill:none;stroke:#FFFFFF;stroke-width:0.5;}
	.st8{fill:#3B3B3B;}
	.st9{fill:none;stroke:#F1F2F2;stroke-width:3;stroke-miterlimit:10;}
	.st10{fill:#F2F2F2;}
	.st11{stroke:#000000;stroke-width:0.5;stroke-miterlimit:10;}
	.st12{fill:#102E25;}
	.st13{fill:#F9A652;}
	.st14{fill:#F2E3D8;}
	.st15{fill:#74C165;}
	.st16{fill:#D7E151;}
	.st17{fill:#09203B;}
	.st18{fill:#F8F8EF;}
	.st19{fill:#D9D6A3;}
	.st20{fill:#F8E0B9;}
	.st21{fill:#F4F1EA;}
	.st22{fill:#0E4B44;}
	.st23{fill:#304C3C;}
	.st24{fill:#01814E;}
	.st25{fill:#1C2618;}
	.st26{fill:#414042;}
	.st27{fill:#F5F4DC;}
	.st28{fill:#566B30;}
	.st29{fill:#8B461F;}
	.st30{fill:#DC793B;}
	.st31{fill:#E0E77E;}
	.st32{fill:#194A91;}
	.st33{fill:#111610;}
	.st34{fill:#CEE5B2;}
	.st35{fill:#153032;}
	.st36{fill:#FAF7F2;}
	.st37{fill:#0F0F0F;}
	.st38{fill:#8E8F70;}
	.st39{fill:#F2EE94;}
	.st40{fill:#767558;}
	.st41{fill:#516555;}
	.st42{fill:#B3CFA5;}
	.st43{fill:#EED459;}
	.st44{fill:#6A806F;}
	.st45{fill:#DBEDE1;}
	.st46{fill:#176533;}
	.st47{fill:#009789;}
	.st48{fill:#EDD56E;}
	.st49{fill:#40281C;}
	.st50{fill:#F0E8DF;}
	.st51{fill:#303C22;}
	.st52{fill:#3374BA;}
	.st53{fill:#1A4474;}
</style>
<g>
	<path d="M61.7,30.9c0,5.4-1.4,10.5-3.8,14.9c-1.4,2.6-3.2,4.9-5.2,6.9c-5.6,5.6-13.3,9-21.8,9s-16.2-3.4-21.8-9
		C3.5,47.1,0,39.4,0,30.9C0,22.3,3.5,14.6,9.1,9c5.6-5.6,13.3-9,21.8-9s16.2,3.4,21.8,9c2.1,2.1,3.8,4.4,5.2,6.9
		C60.3,20.4,61.7,25.4,61.7,30.9z"/>
	<g>
		<path class="st4" d="M48.1,22.2c-1-0.3-1.8-1.1-2.1-2.1c-0.8-2.5,1.2-4.8,3.7-4.5c1.5,0.2,2.8,1.4,2.9,2.9
			C52.9,21,50.6,23,48.1,22.2z"/>
		<path class="st4" d="M52.6,36.8c0,5.4-2.8,9.3-7.5,9.3c-0.4,0-0.5-0.2-0.5-0.6v-4.5c0-0.4,0.2-0.6,0.6-0.6c2-0.3,2.9-1.9,2.9-3.6
			c0-1.8-0.7-3.4-3-3.4c-1,0-1.7,0.4-2.2,1.2L38,41.9c-1.4,2-3.3,3.9-7,3.9c-4.9,0-7.7-3.8-7.7-8.7c0-5.8,3.3-8.7,7.5-9
			c0,0,0.2,0,0.3,0c2-0.3,2.9-1.9,2.9-3.6c0-1.8-0.6-3.3-3-3.3c-1,0-1.7,0.5-2.2,1.2l-4.9,7.3c-1.4,2-3.3,3.9-7,3.9
			c-4.9,0-7.7-3.8-7.7-8.7c0-5.8,3.1-8.9,7.5-8.9c0.4,0,0.5,0.3,0.5,0.6v4.3c0,0.4-0.3,0.7-0.8,0.7c-0.9,0-2.7,0.8-2.7,3.2
			c0,2.4,1.4,3.2,2.8,3.2c1.6,0,2-0.6,2.7-1.6l4.9-7.1c1.7-2.4,3.4-3.8,6.8-3.8c5.3,0,7.7,3.4,7.7,8.9c0,5.4-2.8,9.3-7.6,9.3
			c-0.1,0-0.3,0-0.4,0c-0.9,0-2.7,0.8-2.7,3.2c0,2.4,1.4,3.2,2.8,3.2c1.6,0,2-0.6,2.7-1.6l4.9-7.1c1.6-2.4,3.4-3.8,6.8-3.8
			C50.3,27.9,52.6,31.3,52.6,36.8z"/>
	</g>
</g>
</svg>
